<svg version="1.2" xmlns="http://www.w3.org/2000/svg" viewBox="0 0 1280 720" width="1280" height="720"><style></style><path  d="m219.5 410h-20v-100h20zm-20 20h-100v-140h100v20h-60v100h60zm80 0h-40v-100h20v-20h60v20h-40v40h40v-40h20v100h-20v-40h-40zm180 0h-20v-100h20zm-60 0h-40v-120h80v20h-40zm180 0h-20v-20h20zm-20-19.9h-20v-20h20zm0-60h-20v-20.1h20zm-40 80h-40v-120h40v40h20v40h-20zm60-100h-20v-20h20zm140 100h-100v-20h-20v-100h20v-20h100v20h-80v100h80zm60 0h-40v-120h40v40.1h39.9v-40.1h20.1v120h-20.1v-60h-39.9zm120 0h-40v-99.9h19.9v-20.1h60v20.1h-39.9v39.9h39.9v-39.9h20.1v99.9h-20.1v-39.9h-39.9zm159.9 0h-79.9v-20h19.9v-80h-19.9v-20h79.9v20h-19.9v80h19.9zm120 0h-20v-100h20zm-60 0h-39.9v-120h79.9v20h-40z"/></svg>